<svg xmlns="http://www.w3.org/2000/svg" width="259" height="205" viewBox="0 0 259 205" fill="none"><g clip-path="url(#clip0_317_3425)"><path d="M137.989 43.9663C139.658 44.2163 140.713 46.4258 140.336 48.9001C139.965 51.3766 138.306 53.1773 136.633 52.9273C134.963 52.6731 133.908 50.4636 134.281 47.9892C134.656 45.5128 136.315 43.7121 137.989 43.9663Z" fill="#363172"></path><path d="M111.099 39.9089C112.769 40.1589 113.824 42.3727 113.451 44.847C113.08 47.3192 111.417 49.1241 109.748 48.8699C108.074 48.6199 107.019 46.4104 107.396 43.9318C107.767 41.4596 109.43 39.6589 111.099 39.9089Z" fill="#363172"></path><path d="M26.847 178.296C27.2876 180.772 28.582 185.357 32.3019 188.399C37.5408 192.688 30.3805 199.559 23.1905 193.616C22.824 197.086 17.2441 199.292 12.4479 194.502C9.91853 195.728 5.81936 194.86 3.36409 190.009C0.63978 184.621 1.40454 178.728 1.40454 178.728C1.40454 178.728 2.60781 163.886 13.1216 159.476C12.431 161.672 13.6576 164.011 15.8544 164.702C16.2696 164.831 16.6869 164.892 17.1021 164.892C18.8753 164.892 20.5213 163.753 21.0763 161.971C21.2966 161.268 21.5212 160.581 21.7542 159.912H21.7585C21.7585 159.912 27.1054 160.607 32.1812 169.066C37.2569 177.525 39.3118 180.183 37.6192 182.359C35.3567 185.268 30.1708 183.321 26.847 178.298V178.296Z" fill="white"></path><path d="M130.18 121.048C130.896 122.609 131.379 124.371 131.57 126.257C131.678 127.352 131.682 128.424 131.587 129.46C131.315 132.477 130.222 135.165 128.578 137.108C127.288 127.7 122.973 120.474 116.745 115.576C117.827 114.855 119.045 114.394 120.353 114.264C124.392 113.864 128.182 116.673 130.18 121.05V121.048Z" fill="white"></path><path d="M68.2137 116.58C71.7049 119.618 72.5777 125.721 70.0038 131.371C67.3706 137.171 61.9982 140.554 57.3249 139.684C56.7127 139.571 56.1132 139.385 55.5348 139.122C52.3318 137.663 50.5036 134.203 50.3828 130.185C55.1345 129.024 58.5579 129.286 58.9582 129.327C61.2462 129.556 63.282 127.89 63.5192 125.607C63.7565 123.315 62.0914 121.27 59.7993 121.031C59.6044 121.01 56.9076 120.751 52.8338 121.294C56.0962 115.942 61.8118 113.313 66.3346 115.373C67.0295 115.688 67.6544 116.093 68.2158 116.58H68.2137Z" fill="white"></path><path d="M124.293 144.711V144.87C124.293 161.184 112.805 184.622 98.6343 184.622C84.4641 184.622 72.9758 161.184 72.9758 144.87C72.9758 144.516 72.9801 144.162 72.9928 143.813C73.2131 136.786 79.7294 131.585 86.6397 132.886C90.8999 133.684 95.5435 134.129 100.407 134.129C104.136 134.129 107.739 133.867 111.142 133.383C118.024 132.409 124.257 137.76 124.293 144.713V144.711Z" fill="white"></path><path d="M174.33 81.4537C175.366 79.1065 176.769 74.7256 175.47 70.2408C173.782 64.4448 181.395 62.5467 184.878 68.5609C186.971 65.2498 193.79 66.684 194.623 74.465C194.739 75.5348 194.752 76.5453 194.701 77.4901C196.091 76.9859 197.752 77.274 198.809 78.6637C199.949 80.1615 200.618 82.3922 200.22 85.3135C199.413 91.296 195.443 95.7193 195.443 95.7193C195.443 95.7193 186.039 107.265 174.877 104.943L174.544 104.723C175.243 103.682 175.93 102.596 176.608 101.464C177.79 99.488 177.148 96.9289 175.176 95.7426C174.801 95.5222 174.407 95.3634 174.01 95.268C172.28 94.8486 170.415 95.571 169.458 97.1746C168.954 98.0156 168.443 98.827 167.931 99.6129L167.926 99.6087C167.352 99.0177 164.052 95.232 164.611 86.2435C165.223 76.3991 165.073 73.1537 167.661 72.2131C170.704 71.103 172.996 74.7595 173.86 79.5069C173.981 80.1678 174.135 80.8139 174.33 81.4537Z" fill="white"></path><path d="M113.762 91.1457C109.455 91.2749 105.032 91.0207 100.543 90.3428C95.9589 89.6522 91.561 88.5612 87.4068 87.1227C71.0334 81.4517 58.4138 70.4125 52.7852 57.4117C60.6234 57.5536 68.0104 49.3404 69.6818 38.2398C71.2092 28.1116 67.485 18.8752 61.0937 15.6806C73.0268 3.85549 92.8702 -2.3134 114.04 0.876966C134.928 4.03132 151.89 15.5069 159.942 30.0521C164.098 37.545 165.876 45.8556 164.611 54.2594C163.562 61.191 160.554 67.4531 156.061 72.7661C146.816 83.7015 131.305 90.6245 113.762 91.1478V91.1457ZM153.68 49.7535C154.786 42.4174 149.689 35.507 142.351 34.4012L105.71 28.8721C98.3697 27.7663 91.4636 32.8632 90.3535 40.2015L90.059 42.1611C88.949 49.4972 94.0502 56.4075 101.388 57.5134L138.029 63.0425C145.365 64.1483 152.275 59.0513 153.381 51.7131L153.68 49.7535Z" fill="white"></path><path d="M113.762 91.1458C113.792 91.5208 113.775 91.9021 113.72 92.277C113.046 96.7575 106.538 99.4882 99.1894 98.3803C91.8342 97.2702 86.4194 92.7389 87.0973 88.2605C87.1588 87.8686 87.2605 87.4873 87.4087 87.125C91.5651 88.5613 95.963 89.6544 100.545 90.345C105.034 91.0229 109.457 91.2771 113.764 91.1479L113.762 91.1458Z" fill="#A0A0BC"></path><path d="M159.942 30.0518C168.242 31.3758 173.523 41.9023 171.754 53.6384C170.165 64.1692 163.437 72.0964 156.063 72.7658C160.556 67.4527 163.564 61.1907 164.613 54.2591C165.878 45.8553 164.1 37.5447 159.944 30.0518H159.942Z" fill="#A0A0BC"></path><path d="M61.0936 15.6851C67.485 18.8797 71.2092 28.1139 69.6818 38.2443C68.0124 49.3449 60.6233 57.5581 52.7851 57.4161C52.3064 57.4077 51.8234 57.3695 51.3404 57.2954C42.9852 56.0349 37.6553 45.4618 39.4326 33.6833C41.2058 21.9006 49.4189 13.3781 57.774 14.6322C58.9434 14.8101 60.0535 15.1682 61.0936 15.6851Z" fill="#A0A0BC"></path><path d="M175.178 95.7423C177.15 96.9287 177.794 99.4877 176.61 101.464C175.932 102.595 175.245 103.682 174.546 104.722C163.408 121.46 150.434 127.066 141.264 128.775C137.669 129.449 134.381 129.582 131.587 129.457C131.682 128.421 131.678 127.352 131.57 126.254C131.379 124.369 130.896 122.608 130.18 121.045C138.302 121.856 154.417 120.303 167.93 99.6127C168.443 98.8268 168.954 98.0154 169.458 97.1744C170.415 95.5686 172.28 94.8484 174.01 95.2678C174.407 95.3631 174.801 95.522 175.176 95.7423H175.178Z" fill="#A0A0BC"></path><path d="M142.35 34.4011C149.687 35.5069 154.784 42.4151 153.68 49.7534L153.381 51.7129C152.275 59.0491 145.367 64.146 138.029 63.0423L101.388 57.5132C94.0522 56.4074 88.951 49.4992 90.0589 42.1609L90.3534 40.2013C91.4635 32.8652 98.3674 27.7682 105.71 28.8719L142.35 34.4011ZM140.336 48.8975C140.711 46.4253 139.658 44.2158 137.989 43.9637C136.315 43.7095 134.656 45.508 134.281 47.9866C133.911 50.4588 134.963 52.6683 136.633 52.9247C138.306 53.1746 139.965 51.3761 140.336 48.8975ZM113.453 44.845C113.824 42.3727 112.771 40.159 111.101 39.9069C109.432 39.6569 107.769 41.4555 107.398 43.9298C107.023 46.4062 108.076 48.6158 109.75 48.8679C111.419 49.1221 113.082 47.3193 113.453 44.845Z" fill="#4061E4"></path><path d="M103.418 195.767C100.147 197.665 96.6769 198.741 93.0861 198.741C73.2639 198.741 57.1956 165.958 57.1956 143.136C57.1956 141.958 57.2337 140.802 57.3248 139.683C61.9981 140.556 67.3725 137.171 70.0036 131.371C72.5754 125.721 71.7047 119.62 68.2135 116.58C71.567 113.65 75.5455 111.457 79.956 110.027C84.0213 108.712 88.4531 108.038 93.084 108.038C93.5585 108.038 94.0288 108.047 94.4991 108.059C103 108.313 110.756 110.86 116.743 115.573C122.971 120.471 127.286 127.697 128.576 137.105C128.839 139.022 128.972 141.037 128.972 143.134C128.972 160.268 119.914 183.02 107.008 193.297C105.839 194.225 104.64 195.053 103.413 195.765L103.418 195.767ZM124.293 144.871V144.712C124.259 137.76 118.026 132.409 111.142 133.383C107.741 133.866 104.138 134.129 100.407 134.129C95.5435 134.129 90.8999 133.684 86.6397 132.885C79.7294 131.587 73.2131 136.787 72.9927 143.812C72.98 144.162 72.9758 144.515 72.9758 144.869C72.9758 161.183 84.4641 184.622 98.6343 184.622C112.805 184.622 124.293 161.183 124.293 144.869V144.871Z" fill="#A0A0BC"></path><path d="M52.8316 121.294C56.9053 120.749 59.6021 121.01 59.797 121.031C62.0891 121.268 63.7542 123.315 63.5169 125.607C63.2797 127.89 61.2417 129.556 58.956 129.327C58.5556 129.289 55.1322 129.024 50.3805 130.185C41.8263 132.269 28.978 138.968 21.7541 159.913C21.5211 160.582 21.2965 161.269 21.0762 161.972C20.5191 163.753 18.8751 164.893 17.102 164.893C16.6868 164.893 16.2695 164.832 15.8543 164.703C13.6574 164.012 12.4309 161.673 13.1215 159.476C19.8454 138.019 32.037 128.691 41.0742 124.643C45.4848 122.666 49.5946 121.726 52.8316 121.294Z" fill="#A0A0BC"></path><path d="M258.305 204.018C258.108 204.018 257.913 203.927 257.786 203.757C257.572 203.471 257.634 203.065 257.919 202.851C257.926 202.844 257.943 202.83 257.962 202.815C258.246 202.599 258.652 202.656 258.869 202.94C259.083 203.222 259.03 203.622 258.752 203.84C258.731 203.859 258.712 203.874 258.693 203.889C258.576 203.976 258.441 204.016 258.307 204.016L258.305 204.018Z" fill="#0B0138"></path><path d="M52.3317 58.6639C52.2596 58.6639 52.1897 58.6639 52.1198 58.6639C51.6029 58.6554 51.0881 58.6109 50.5882 58.5367C46.3344 57.8949 42.6991 54.9799 40.354 50.3257C38.0449 45.7477 37.259 40.0153 38.1381 34.1874C39.9621 22.0763 48.5206 13.2848 57.2168 14.594C58.4306 14.7783 59.6127 15.1512 60.727 15.7083C67.5399 19.1126 71.2154 28.6668 69.6668 38.9433C68.8449 44.411 66.6099 49.4296 63.3751 53.0775C60.1741 56.6873 56.2593 58.666 52.3296 58.666L52.3317 58.6639ZM55.4775 15.757C48.0376 15.757 41.0235 23.7097 39.4177 34.3781C38.5767 39.9432 39.3202 45.3982 41.5086 49.741C43.6609 54.0096 46.953 56.6768 50.781 57.2551C51.2237 57.3229 51.6813 57.361 52.141 57.3695C55.7487 57.4394 59.4009 55.6048 62.407 52.2174C65.4766 48.7559 67.6014 43.9725 68.3873 38.7484C69.1033 34.0031 68.6457 29.19 67.0993 25.1989C65.5952 21.3137 63.1272 18.3542 60.1508 16.865C59.1552 16.3693 58.1044 16.0367 57.024 15.8736C56.5071 15.7952 55.9923 15.757 55.4775 15.757Z" fill="#0B0138"></path><path d="M155.406 74.0122C155.076 74.0122 154.792 73.7601 154.762 73.4233C154.731 73.0674 154.993 72.7517 155.349 72.72C162.579 72.0632 168.935 64.2505 170.46 54.1413C172.17 42.8076 167.111 32.5565 159.186 31.2918C158.832 31.2346 158.593 30.9042 158.648 30.5504C158.705 30.1966 159.035 29.9551 159.389 30.0123C163.615 30.6881 167.223 33.6136 169.547 38.2509C171.835 42.8182 172.614 48.5295 171.74 54.3341C170.127 65.0258 163.283 73.3004 155.466 74.0101C155.447 74.0101 155.425 74.0122 155.406 74.0122Z" fill="#0B0138"></path><path d="M110.953 92.4254C107.248 92.4254 103.503 92.1436 99.7932 91.5822C95.2555 90.898 90.7962 89.807 86.5403 88.3347C78.4775 85.5426 71.0248 81.3142 64.9894 76.1071C59.0069 70.9465 54.3549 64.7777 51.5373 58.2698C51.3954 57.9415 51.5458 57.5601 51.8742 57.4182C52.2025 57.2763 52.5838 57.4267 52.7258 57.755C58.3884 70.8364 70.8681 81.5366 86.9639 87.1102C91.1457 88.555 95.5267 89.629 99.986 90.3006C104.348 90.9594 108.756 91.2263 113.089 91.0971C130.097 90.5908 145.734 83.8054 154.913 72.9442C159.48 67.5422 162.308 61.4242 163.317 54.7596C164.518 46.7773 162.929 38.5493 158.722 30.9632C150.528 16.1638 133.118 5.10979 113.288 2.11432C93.1328 -0.921401 73.0585 4.68398 60.8945 16.7421C60.6424 16.9921 60.2335 16.9942 59.9814 16.7442C59.7293 16.4943 59.723 16.0896 59.9708 15.8354C66.019 9.83814 74.0711 5.27502 83.2694 2.62486C92.724 -0.0973295 103.17 -0.718031 113.48 0.836901C123.653 2.37277 133.341 5.97411 141.501 11.249C149.432 16.3777 155.779 22.9788 159.855 30.3382C164.202 38.1743 165.844 46.6883 164.598 54.9566C163.554 61.8627 160.628 68.1968 155.902 73.7852C151.273 79.2614 144.956 83.8499 137.631 87.0573C130.237 90.2921 121.766 92.1394 113.129 92.3957C112.406 92.4169 111.68 92.4275 110.955 92.4275L110.953 92.4254Z" fill="#0B0138"></path><path d="M139.397 64.4412C138.694 64.4412 137.986 64.3882 137.281 64.2823L100.641 58.7532C96.9205 58.1939 93.6327 56.2068 91.3851 53.1584C89.1353 50.1099 88.2053 46.3836 88.7688 42.6636L89.0633 40.7041C90.2284 32.9972 97.448 27.6715 105.155 28.8302L141.795 34.3594C145.515 34.9186 148.801 36.9057 151.051 39.9542C153.298 43.0005 154.228 46.7289 153.669 50.4468L153.371 52.4063C152.811 56.1242 150.824 59.412 147.776 61.6596C145.308 63.4815 142.395 64.4369 139.399 64.4369L139.397 64.4412ZM103.039 29.97C96.7934 29.97 91.3003 34.5437 90.3386 40.899L90.0462 42.8585C89.5357 46.2374 90.3809 49.6206 92.4231 52.3915C94.4674 55.1603 97.4523 56.9652 100.831 57.4736L137.472 63.0027C140.851 63.5112 144.234 62.6659 147.002 60.6237C149.771 58.5794 151.576 55.5946 152.085 52.2178L152.383 50.2582C152.892 46.8814 152.046 43.4962 150.004 40.7274C147.96 37.9586 144.975 36.1537 141.598 35.6452L104.958 30.1161C104.314 30.0187 103.672 29.9721 103.039 29.9721V29.97Z" fill="#0B0138"></path><path d="M101.791 99.8761C100.693 99.8761 99.5686 99.7914 98.4373 99.6219C94.764 99.0669 91.4338 97.6687 89.059 95.6816C86.5953 93.6182 85.4365 91.163 85.8009 88.7628C85.8686 88.3179 85.9873 87.8879 86.1525 87.4811C86.286 87.1507 86.6631 86.9896 86.9957 87.1231C87.3261 87.2566 87.4871 87.6358 87.3537 87.9662C87.2266 88.2798 87.1355 88.6124 87.0825 88.9556C86.7902 90.8876 87.788 92.9234 89.8937 94.6859C92.0884 96.5226 95.1919 97.8191 98.6322 98.3381C102.07 98.8571 105.418 98.533 108.055 97.4251C110.584 96.3637 112.137 94.7135 112.427 92.7793C112.478 92.4404 112.491 92.1099 112.466 91.7964C112.466 91.7794 112.466 91.7625 112.466 91.7434C112.466 91.3854 112.756 91.0931 113.114 91.0931C113.472 91.0931 113.745 91.3642 113.76 91.7095C113.792 92.1163 113.775 92.5399 113.711 92.97C113.351 95.3702 111.521 97.3742 108.559 98.6177C106.585 99.446 104.257 99.8719 101.795 99.8719L101.791 99.8761Z" fill="#0B0138"></path><path d="M109.415 50.1393C109.275 50.1393 109.138 50.1287 108.998 50.1075C108.218 49.991 107.525 49.5503 106.996 48.8322C106.187 47.7348 105.854 46.0909 106.104 44.4343C106.534 41.566 108.483 39.5598 110.542 39.867C111.57 40.0216 112.432 40.7313 112.972 41.8647C113.472 42.9133 113.637 44.2182 113.438 45.5423C113.19 47.1989 112.385 48.6712 111.286 49.4804C110.695 49.9147 110.055 50.1393 109.413 50.1393H109.415ZM110.135 41.1317C108.909 41.1317 107.68 42.6612 107.384 44.625C107.182 45.9511 107.426 47.2349 108.036 48.0611C108.261 48.364 108.642 48.7432 109.191 48.8258C109.739 48.9106 110.214 48.6606 110.519 48.436C111.347 47.8259 111.959 46.6714 112.158 45.3474C112.319 44.2775 112.192 43.2374 111.805 42.4197C111.455 41.6867 110.94 41.2355 110.351 41.1465C110.279 41.1359 110.207 41.1296 110.135 41.1296V41.1317Z" fill="#0B0138"></path><path d="M136.3 54.1958C136.162 54.1958 136.023 54.1852 135.883 54.164C133.828 53.8505 132.555 51.3592 132.987 48.4908C133.188 47.1668 133.731 45.9657 134.516 45.1141C135.366 44.1904 136.402 43.7689 137.431 43.9256C138.209 44.0421 138.902 44.4828 139.431 45.2009C140.24 46.2983 140.573 47.9401 140.321 49.5967C139.921 52.2723 138.198 54.1979 136.3 54.1979V54.1958ZM134.266 48.6836C133.955 50.7639 134.783 52.6875 136.076 52.8845C137.37 53.0773 138.73 51.4842 139.041 49.4018C139.243 48.0777 138.999 46.794 138.389 45.9678C138.164 45.6649 137.785 45.2857 137.239 45.2052C136.648 45.1162 136.018 45.3937 135.47 45.9911C134.858 46.6563 134.43 47.6138 134.266 48.6836Z" fill="#0B0138"></path><path d="M92.4317 199.987C83.1233 199.987 73.9102 193.038 66.4957 180.423C59.9561 169.299 55.895 155.241 55.895 143.734C55.895 142.484 55.9395 141.306 56.0264 140.228C56.056 139.872 56.3674 139.607 56.7233 139.634C57.0792 139.664 57.3461 139.976 57.3165 140.331C57.2318 141.374 57.1894 142.518 57.1894 143.732C57.1894 155.021 61.1826 168.829 67.6121 179.764C74.7851 191.968 83.5999 198.688 92.4317 198.688C95.7725 198.688 99.1387 197.718 102.439 195.803C103.611 195.123 104.793 194.309 105.958 193.388C117.933 183.853 127.676 161.575 127.676 143.732C127.676 141.677 127.545 139.679 127.284 137.791C126.079 128.998 122.069 121.698 115.692 116.681C109.888 112.11 102.327 109.559 93.8299 109.305C93.3002 109.29 92.8575 109.284 92.4338 109.284C87.8686 109.284 83.5173 109.942 79.505 111.241C75.1113 112.665 71.2367 114.825 67.9892 117.664C67.7201 117.899 67.3113 117.872 67.0761 117.603C66.841 117.334 66.8685 116.925 67.1376 116.69C70.5186 113.734 74.5457 111.487 79.1067 110.01C83.2483 108.669 87.733 107.989 92.4359 107.989C92.8702 107.989 93.3257 107.996 93.8701 108.01C102.649 108.273 110.472 110.919 116.497 115.662C123.145 120.891 127.32 128.481 128.572 137.613C128.839 139.56 128.975 141.617 128.975 143.732C128.975 152.214 126.716 162.386 122.78 171.638C118.626 181.402 112.94 189.485 106.767 194.4C105.555 195.362 104.318 196.212 103.094 196.923C99.5941 198.955 96.0097 199.984 92.4359 199.984L92.4317 199.987Z" fill="#0B0138"></path><path d="M97.9819 185.869C91.2601 185.869 84.6188 180.87 79.2824 171.79C74.5922 163.81 71.6772 153.724 71.6772 145.468C71.6772 145.062 71.6836 144.708 71.6942 144.386C71.8043 140.863 73.4588 137.562 76.2298 135.336C79.0155 133.097 82.6147 132.19 86.1059 132.847C90.4657 133.664 95.0584 134.078 99.7529 134.078C103.358 134.078 106.939 133.828 110.396 133.338C113.872 132.847 117.399 133.887 120.071 136.196C122.732 138.495 124.267 141.814 124.284 145.305V145.468C124.284 153.724 121.369 163.81 116.679 171.79C111.343 180.867 104.702 185.869 97.9797 185.869H97.9819ZM83.8688 133.934C81.4115 133.934 79.0007 134.772 77.0411 136.346C74.5647 138.338 73.086 141.285 72.9886 144.433C72.978 144.742 72.9716 145.081 72.9716 145.471C72.9716 153.51 75.8167 163.344 80.3988 171.138C83.3498 176.156 89.5568 184.577 97.9819 184.577C106.407 184.577 112.616 176.156 115.565 171.138C120.145 163.346 122.992 153.51 122.992 145.471V145.312C122.977 142.198 121.605 139.234 119.228 137.179C116.838 135.116 113.688 134.184 110.58 134.624C107.064 135.124 103.422 135.376 99.755 135.376C94.98 135.376 90.3068 134.955 85.8686 134.122C85.2035 133.997 84.534 133.936 83.8688 133.936V133.934Z" fill="#0B0138"></path><path d="M58.1617 141.065C57.6215 141.065 57.0834 141.016 56.5538 140.919C55.8844 140.796 55.2298 140.59 54.6133 140.311C51.2831 138.794 49.2155 135.239 49.0821 130.803C49.0715 130.445 49.3532 130.146 49.7091 130.136C50.0671 130.117 50.3637 130.407 50.3764 130.763C50.4951 134.695 52.2788 137.824 55.1514 139.131C55.6704 139.368 56.2233 139.54 56.7911 139.643C61.2631 140.476 66.2965 137.137 68.7645 131.701C71.1498 126.465 70.4656 120.563 67.1375 117.667C66.6185 117.215 66.038 116.843 65.4131 116.559C61.297 114.686 55.8462 117.122 52.7343 122.228C52.7046 122.276 52.6707 122.319 52.6305 122.357C52.5139 122.471 52.3529 122.541 52.1771 122.541C51.8191 122.541 51.5289 122.251 51.5289 121.893C51.5289 121.755 51.5712 121.628 51.6454 121.522C55.1577 115.785 61.1678 113.203 65.9491 115.377C66.6863 115.711 67.3727 116.152 67.987 116.686C71.7959 120.001 72.601 126.395 69.9423 132.233C67.5167 137.576 62.7545 141.061 58.1638 141.061L58.1617 141.065Z" fill="#0B0138"></path><path d="M127.924 138.353C127.775 138.353 127.627 138.303 127.506 138.201C127.233 137.97 127.199 137.561 127.43 137.288C129.019 135.413 130.034 132.824 130.288 130C130.379 129 130.375 127.965 130.271 126.92C130.091 125.141 129.644 123.457 128.936 121.919C126.994 117.663 123.39 115.15 119.761 115.508C118.592 115.625 117.478 116.029 116.448 116.716C116.152 116.913 115.749 116.832 115.55 116.536C115.353 116.239 115.433 115.837 115.73 115.637C116.938 114.834 118.251 114.358 119.632 114.22C123.82 113.805 127.936 116.614 130.112 121.38C130.877 123.048 131.364 124.87 131.557 126.793C131.667 127.92 131.673 129.039 131.574 130.119C131.296 133.206 130.174 136.049 128.415 138.127C128.288 138.277 128.104 138.355 127.922 138.355L127.924 138.353Z" fill="#0B0138"></path><path d="M16.4474 166.139C15.958 166.139 15.4729 166.065 15.0069 165.919C12.469 165.12 11.0539 162.413 11.8504 159.881C18.6442 138.201 30.9926 128.757 40.1569 124.651C43.968 122.944 47.9846 121.798 52.0922 121.251C56.3609 120.682 59.1 120.974 59.2144 120.987C60.4897 121.118 61.6421 121.741 62.4535 122.739C63.2648 123.736 63.6398 124.99 63.5063 126.272C63.2331 128.905 60.8689 130.833 58.2357 130.57C58.0937 130.556 54.6682 130.244 49.8784 131.414C40.8836 133.606 28.6962 140.47 21.7096 160.722C21.4914 161.349 21.2711 162.016 21.0381 162.76C20.4068 164.779 18.5616 166.137 16.4453 166.137L16.4474 166.139ZM57.1277 122.196C55.9456 122.196 54.2784 122.264 52.2638 122.533C48.279 123.065 44.3853 124.175 40.6865 125.831C31.7658 129.827 19.7352 139.046 13.0854 160.267C12.5029 162.118 13.5388 164.099 15.3945 164.681C15.7335 164.787 16.0894 164.842 16.4474 164.842C17.9939 164.842 19.3433 163.851 19.8051 162.374C20.0424 161.616 20.2669 160.936 20.4894 160.296C23.7454 150.857 28.4547 143.385 34.488 138.087C38.941 134.176 44.0146 131.507 49.5734 130.153C54.4882 128.952 57.9815 129.24 58.3649 129.278C60.2948 129.469 62.0213 128.06 62.2205 126.134C62.3179 125.198 62.0446 124.281 61.4515 123.552C60.8583 122.823 60.0152 122.368 59.0788 122.27C59.0619 122.27 58.3585 122.194 57.1277 122.194V122.196Z" fill="#0B0138"></path><path d="M132.813 130.748C132.178 130.748 131.542 130.733 130.907 130.705C130.561 130.693 130.28 130.407 130.28 130.059C130.28 129.712 130.566 129.411 130.924 129.411H130.932C130.932 129.411 130.951 129.411 130.962 129.411C134.144 129.553 137.349 129.328 140.49 128.739C149.365 127.085 162.27 121.619 173.354 104.964C174.023 103.969 174.712 102.882 175.4 101.732C176.396 100.066 175.853 97.8972 174.188 96.8973C173.875 96.713 173.542 96.5774 173.205 96.4969C171.697 96.1325 170.151 96.7786 169.358 98.1069C168.86 98.9352 168.341 99.7635 167.816 100.569C155.815 118.942 141.785 122.456 132.817 122.456C131.601 122.456 130.479 122.393 129.468 122.291C129.138 122.261 128.875 121.984 128.875 121.647C128.875 121.268 129.212 120.965 129.589 121.003C137.77 121.821 153.474 120.16 166.734 99.861C167.25 99.0708 167.761 98.2573 168.248 97.4438C169.333 95.6283 171.447 94.7428 173.508 95.2406C173.968 95.3508 174.419 95.5351 174.849 95.7872C177.129 97.16 177.872 100.124 176.51 102.401C175.809 103.57 175.11 104.676 174.43 105.689C163.096 122.717 149.848 128.316 140.728 130.017C138.118 130.506 135.463 130.752 132.813 130.752V130.748Z" fill="#0B0138"></path><path d="M34.0771 184.963C34.0072 184.963 33.9373 184.963 33.8673 184.959C31.1007 184.853 27.8764 182.614 25.6521 179.252C25.455 178.953 25.5377 178.553 25.8342 178.356C26.1329 178.159 26.5333 178.241 26.7303 178.538C28.7301 181.563 31.5519 183.575 33.914 183.664C34.9965 183.707 35.8481 183.334 36.4518 182.559C37.6043 181.078 36.5599 179.209 32.7594 172.956C32.2128 172.055 31.6155 171.072 30.9693 169.996C26.1456 161.959 21.0656 161.158 21.0148 161.152C20.6631 161.103 20.4132 160.777 20.4619 160.423C20.5106 160.069 20.8326 159.821 21.1843 159.868C21.4152 159.898 26.9019 160.703 32.0794 169.331C32.7234 170.405 33.3208 171.386 33.8652 172.284C37.7632 178.701 39.2228 181.103 37.4729 183.353C36.6531 184.408 35.4795 184.963 34.0728 184.963H34.0771Z" fill="#0B0138"></path><path d="M28.2578 197.189C26.2347 197.189 24.0993 196.345 22.1334 194.723C22.0169 194.634 21.9067 194.536 21.7944 194.439C16.5958 189.876 15.8099 184.393 15.7781 184.162C15.7315 183.808 15.9793 183.482 16.3331 183.436C16.6869 183.389 17.0131 183.637 17.0597 183.991C17.0661 184.042 17.8287 189.238 22.6461 193.464C22.7372 193.545 22.8304 193.625 22.9257 193.697C22.932 193.704 22.9405 193.708 22.9469 193.714C26.366 196.54 29.1708 195.932 30.2174 195.543C31.588 195.03 32.5646 193.969 32.7616 192.774C32.9523 191.621 32.4099 190.458 31.2363 189.496C27.349 186.317 26.008 181.559 25.5547 179.006C25.3598 177.913 25.3216 177.216 25.3216 177.186C25.3026 176.828 25.578 176.525 25.936 176.506C26.2877 176.483 26.5969 176.763 26.616 177.118C26.616 177.118 26.652 177.771 26.8321 178.777C27.2537 181.154 28.4951 185.577 32.0604 188.492C33.609 189.759 34.3123 191.354 34.0432 192.983C33.77 194.634 32.4798 196.078 30.6749 196.752C29.9017 197.04 29.0903 197.184 28.2599 197.184L28.2578 197.189Z" fill="#0B0138"></path><path d="M17.6868 198.517C15.526 198.517 13.2677 197.488 11.3378 195.56C11.1281 195.354 10.912 195.123 10.698 194.88C8.26607 192.105 7.13483 189.207 6.61157 187.264C6.51836 186.919 6.72385 186.563 7.06915 186.472C7.41446 186.378 7.77036 186.584 7.86145 186.929C8.34657 188.738 9.40367 191.439 11.6725 194.03C11.8653 194.251 12.0581 194.456 12.2466 194.642C14.4837 196.877 17.1677 197.729 19.4345 196.928C20.822 196.437 21.7626 195.373 21.8919 194.153C21.93 193.797 22.2477 193.541 22.6036 193.577C22.9595 193.615 23.218 193.933 23.1799 194.289C22.9977 196.011 21.7287 197.49 19.8666 198.148C19.1633 198.398 18.4303 198.519 17.6868 198.519V198.517Z" fill="#0B0138"></path><path d="M9.5075 196.263C6.91665 196.263 4.02711 194.644 2.13111 190.901C-0.605913 185.486 0.052921 179.677 0.105882 179.26C0.173672 178.449 1.54006 163.956 12.217 159.478C12.5453 159.34 12.9267 159.495 13.0644 159.825C13.2021 160.156 13.0474 160.535 12.7169 160.673C2.69461 164.878 1.4066 179.237 1.39389 179.381C1.39389 179.391 1.39389 179.402 1.38965 179.41C1.3833 179.468 0.688452 185.181 3.28565 190.316C5.47188 194.633 9.07746 195.697 11.5094 194.519C11.8314 194.362 12.2191 194.498 12.3737 194.82C12.5305 195.142 12.3949 195.53 12.0729 195.684C11.2912 196.063 10.4163 196.263 9.50327 196.263H9.5075Z" fill="#0B0138"></path><path d="M167.272 100.857C167.102 100.857 166.935 100.792 166.808 100.66C166.123 99.9547 162.738 95.9742 163.312 86.8035C163.384 85.6468 163.446 84.5791 163.503 83.5983C163.939 76.0185 164.105 73.1819 166.789 72.2053C167.848 71.8198 168.918 71.9066 169.877 72.4574C171.718 73.5145 173.165 76.26 173.843 79.9906C173.96 80.6325 174.112 81.2616 174.296 81.8654C174.813 83.5962 175.606 85.2846 176.65 86.8882C176.845 87.1869 176.76 87.5894 176.461 87.7843C176.163 87.9792 175.76 87.8945 175.565 87.5958C174.453 85.8883 173.61 84.0876 173.057 82.2404C172.86 81.5942 172.697 80.9163 172.57 80.2257C171.968 76.9189 170.72 74.436 169.233 73.5823C168.596 73.2158 167.941 73.165 167.231 73.4234C165.427 74.078 165.223 76.2494 164.795 83.6745C164.738 84.6575 164.677 85.7273 164.605 86.8861C164.066 95.5145 167.119 99.1243 167.738 99.7598C167.988 100.016 167.981 100.427 167.725 100.675C167.6 100.798 167.437 100.857 167.274 100.857H167.272Z" fill="#0B0138"></path><path d="M173.676 82.6998C173.589 82.6998 173.5 82.6829 173.415 82.6447C173.089 82.5007 172.941 82.1172 173.085 81.791C174.038 79.6302 175.451 75.3552 174.195 71.0209C173.441 68.43 174.356 66.1548 176.529 65.2269C178.984 64.1783 182.609 65.0808 184.785 68.8368C184.965 69.1461 184.859 69.5422 184.55 69.7223C184.24 69.9002 183.844 69.7964 183.664 69.4871C181.885 66.4133 178.921 65.6125 177.038 66.4175C175.459 67.0933 174.86 68.6779 175.438 70.6607C176.809 75.3912 175.294 79.9925 174.269 82.3164C174.163 82.5579 173.926 82.7019 173.676 82.7019V82.6998Z" fill="#0B0138"></path><path d="M180.849 84.1122C180.73 84.1122 180.609 84.0783 180.501 84.0105C180.201 83.8177 180.112 83.4173 180.304 83.1165C181.605 81.0828 183.69 76.99 183.035 72.4269C182.842 71.0668 183.052 69.8424 183.641 68.8806C183.658 68.8467 183.677 68.8149 183.698 68.7832C184.709 67.2176 186.681 66.5164 188.731 66.9931C191.223 67.5735 194.076 69.9801 194.612 74.9965C194.722 76.0176 194.75 77.0705 194.693 78.1255C194.674 78.4835 194.369 78.7568 194.011 78.7356C193.653 78.7165 193.379 78.4115 193.4 78.0534C193.456 77.0535 193.43 76.0981 193.326 75.1342C192.862 70.7914 190.496 68.7323 188.439 68.2535C186.912 67.8977 185.522 68.3637 184.798 69.4674C184.789 69.4822 184.781 69.4971 184.772 69.5119C184.323 70.2195 184.166 71.1622 184.319 72.2426C185.031 77.2188 182.793 81.6272 181.395 83.8113C181.272 84.0041 181.063 84.11 180.849 84.11V84.1122Z" fill="#0B0138"></path><path d="M177.273 106.504C176.235 106.504 175.174 106.403 174.093 106.178C173.744 106.106 173.519 105.763 173.591 105.413C173.663 105.064 174.006 104.837 174.356 104.911C184.995 107.125 194.195 96.0266 194.286 95.9143C194.292 95.9059 194.299 95.8995 194.305 95.891C194.343 95.8487 198.154 91.5334 198.923 85.8306C199.351 82.6868 198.459 80.74 197.637 79.6596C196.678 78.3991 195.267 78.3377 194.265 78.702C193.301 79.0516 192.259 79.9731 192.227 81.5069V81.6318C192.202 85.0679 190.53 87.6969 187.259 89.4531C186.944 89.6226 186.552 89.504 186.382 89.1883C186.213 88.8727 186.331 88.4807 186.647 88.3113C187.7 87.7478 190.899 86.0297 190.933 81.6255V81.492C190.969 79.6765 192.104 78.1068 193.824 77.4818C195.627 76.8272 197.527 77.3738 198.669 78.8715C199.639 80.1468 200.694 82.4199 200.207 86.0022C199.396 92.0143 195.559 96.427 195.28 96.7405C194.814 97.3104 187.126 106.502 177.271 106.502L177.273 106.504Z" fill="#0B0138"></path></g><defs><clipPath id="clip0_317_3425"><rect width="259" height="204.018" fill="white"></rect></clipPath></defs></svg>